<svg t="1626145768985" class="icon" viewBox="0 0 1024 1024" version="1.1" xmlns="http://www.w3.org/2000/svg" p-id="1619" width="200" height="200"><path d="M217.6 859.977143h563.2v73.142857H217.6zM905.142857 113.188571H93.44c-20.114286 0-36.571429 16.457143-36.571429 36.571429v626.651429c0 20.114286 16.457143 36.571429 36.571429 36.571428H905.142857c20.114286 0 36.571429-16.457143 36.571429-36.571428V149.76a36.571429 36.571429 0 0 0-36.571429-36.571429zM489.325714 598.857143c-6.765714 5.668571-14.994286 8.411429-23.222857 8.411428-9.325714 0-18.651429-3.657143-25.782857-10.605714l-140.251429-139.885714 51.565715-51.748572 116.662857 116.297143 217.6-180.114285 46.628571 56.32-243.2 201.325714z" fill="#ffffff" p-id="1620"></path></svg>
