<svg t="1626145937241" class="icon" viewBox="0 0 1024 1024" version="1.1" xmlns="http://www.w3.org/2000/svg" p-id="2252" width="200" height="200"><path d="M344.868571 678.582857l204.251429-77.714286-126.171429-125.988571zM600.868571 549.12l77.714286-204.251429-203.702857 78.08z" fill="#ffffff" p-id="2253"></path><path d="M512 18.285714C239.725714 18.285714 18.285714 239.725714 18.285714 512s221.44 493.714286 493.714286 493.714286 493.714286-221.44 493.714286-493.714286S784.274286 18.285714 512 18.285714z m263.862857 276.114286L649.142857 627.931429c-0.182857 0.548571-0.548571 1.097143-0.914286 1.645714a17.188571 17.188571 0 0 1-2.194285 4.022857c-0.731429 1.28-1.462857 2.56-2.377143 3.657143-0.914286 1.28-2.011429 2.194286-3.108572 3.291428-1.097143 1.097143-2.194286 2.011429-3.291428 2.925715s-2.377143 1.645714-3.657143 2.377143c-1.28 0.731429-2.742857 1.645714-4.205714 2.194285-0.548571 0.182857-0.914286 0.548571-1.462857 0.731429L294.4 775.862857a36.553143 36.553143 0 0 1-38.948571-8.411428 36.571429 36.571429 0 0 1-8.228572-38.948572l127.451429-332.617143c0.365714-0.914286 0.914286-1.645714 1.28-2.56 0.365714-0.731429 0.914286-1.645714 1.28-2.377143 0.914286-1.645714 2.011429-3.291429 3.108571-4.754285 0.914286-1.097143 1.828571-2.011429 2.742857-3.108572 0.914286-0.914286 2.011429-2.011429 3.108572-2.925714 1.462857-1.097143 3.108571-2.194286 4.754285-3.108571 0.731429-0.365714 1.645714-0.914286 2.377143-1.28 0.914286-0.365714 1.645714-0.914286 2.377143-1.28l332.617143-127.451429c13.531429-5.302857 28.708571-2.011429 38.948571 8.228571s13.714286 25.782857 8.594286 39.131429z" fill="#ffffff" p-id="2254"></path></svg>
