<?xml version="1.0" standalone="no"?><!DOCTYPE svg PUBLIC "-//W3C//DTD SVG 1.1//EN" "http://www.w3.org/Graphics/SVG/1.1/DTD/svg11.dtd"><svg t="1626145570162" class="icon" viewBox="0 0 1024 1024" version="1.1" xmlns="http://www.w3.org/2000/svg" p-id="1290" width="200" height="200" xmlns:xlink="http://www.w3.org/1999/xlink"><defs><style type="text/css"></style></defs><path d="M1019.794286 425.691429c0-50.468571-40.96-91.428571-91.428572-91.428572-45.348571 0-82.834286 33.28-89.965714 76.617143l-2.377143-4.571429-144.274286 75.702858-102.4-190.171429c6.034286-12.251429 9.691429-25.782857 9.691429-40.228571 0-50.468571-40.96-91.428571-91.428571-91.428572s-91.428571 40.96-91.428572 91.428572c0 13.897143 3.474286 27.062857 8.96 38.948571l-102.948571 191.268571-134.582857-71.862857-1.828572 3.474286c-6.034286-44.434286-44.068571-78.994286-90.148571-78.994286-50.468571 0-91.428571 40.96-91.428572 91.428572 0 39.314286 25.051429 72.594286 59.977143 85.577143L118.491429 897.828571c2.56 18.102857 17.92 31.451429 36.205714 31.451429H857.6c18.285714 0 33.645714-13.348571 36.205714-31.451429l53.76-382.537142c41.142857-9.142857 72.228571-45.897143 72.228572-89.6z" fill="#ffffff" p-id="1291"></path></svg>