<svg t="1626145860477" class="icon" viewBox="0 0 1024 1024" version="1.1" xmlns="http://www.w3.org/2000/svg" p-id="2008" width="200" height="200"><path d="M753.554286 756.662857c-75.702857 0-137.142857-61.44-137.142857-137.142857s61.44-137.142857 137.142857-137.142857h199.497143v-154.148572c0-20.114286-16.457143-36.571429-36.571429-36.571428H107.52c-20.114286 0-36.571429 16.457143-36.571429 36.571428v582.765715c0 20.114286 16.457143 36.571429 36.571429 36.571428h808.777143c20.114286 0 36.571429-16.457143 36.571428-36.571428v-154.148572h-199.314285z" fill="#ffffff" p-id="2009"></path><path d="M753.554286 555.52c-35.291429 0-64 28.708571-64 64s28.708571 64 64 64h199.497143v-128H753.554286z m9.874285 100.571429c-20.114286 0-36.571429-16.457143-36.571428-36.571429s16.457143-36.571429 36.571428-36.571429 36.571429 16.457143 36.571429 36.571429a36.571429 36.571429 0 0 1-36.571429 36.571429zM772.022857 218.514286l-43.337143-118.125715a36.589714 36.589714 0 0 0-46.994285-21.76l-381.257143 139.885715h471.588571z" fill="#ffffff" p-id="2010"></path></svg>
